<?xml version="1.0" encoding="UTF-8"?>
<svg width="800" height="800" version="1.1" viewBox="0 0 800.00001 800.00001" xmlns="http://www.w3.org/2000/svg">
 <defs>
  <mask id="e" maskUnits="userSpaceOnUse">
   <circle cx="400" cy="400" r="400" color="#000000" color-rendering="auto" fill="#fff" fill-rule="evenodd" image-rendering="auto" shape-rendering="auto" solid-color="#000000" style="isolation:auto;mix-blend-mode:normal"/>
  </mask>
  <mask id="f" maskUnits="userSpaceOnUse">
   <circle cx="400" cy="400" r="400" color="#000000" color-rendering="auto" fill="#fff" fill-rule="evenodd" image-rendering="auto" shape-rendering="auto" solid-color="#000000" style="isolation:auto;mix-blend-mode:normal"/>
  </mask>
  <linearGradient id="d" x1="452.68" x2="178.12" y1="367.24" y2="641.8" gradientUnits="userSpaceOnUse">
   <stop offset="0"/>
   <stop stop-opacity="0" offset="1"/>
  </linearGradient>
 </defs>
 <g transform="translate(0 -252.36)">
  <g transform="translate(-61.541 263.91)" fill-rule="evenodd" shape-rendering="auto">
   <circle cx="461.54" cy="388.46" r="400" color="#000000" color-rendering="auto" fill="#1c8adb" image-rendering="auto" solid-color="#000000" style="isolation:auto;mix-blend-mode:normal"/>
   <path transform="translate(61.541 -11.544)" d="m250 188.69-20.896 24.35h-20.684c-5.0319 0-9.4723 2.4872-12.193 6.2891l-196.09 196.09c5.9907 238.91 202.99 395.31 417.99 384.38l188.5-188.5v-344.05h-0.043v-39.217c0-8.2843-6.7157-15-15-15h-37.828l-3.752 6.9648v-31.314h-15.791l-20.896 24.35h-101.66l-3.75 6.9648v-31.314h-15.791l-20.896 24.35h-101.67l-3.752 6.9648v-31.314z" color="#000000" color-rendering="auto" fill="url(#d)" image-rendering="auto" mask="url(#f)" opacity=".42" solid-color="#000000" style="isolation:auto;mix-blend-mode:normal"/>
   <path transform="translate(61.541 -11.544)" d="m250 188.69v61.18h15.789v-61.18h-15.789zm142.11 0v61.18h15.791v-61.18h-15.791zm142.1 0v61.18h15.791v-61.18h-15.791zm-325.79 24.35c-8.2843 0-15 6.7157-15 15v39.217h-0.04297v344.05h413.25v-344.05h-0.04297v-39.217c0-8.2843-6.7157-15-15-15h-37.828v40.58h-23.291v-40.58h-118.81v40.58h-23.289v-40.58h-118.82v40.58h-23.289v-40.58h-37.832zm9.1113 72.846h364.94v39.285h-364.94v-39.285zm0 77.145h61v61h-61v-61zm75.99 0h61v61h-61v-61zm75.979 0h61v61h-61v-61zm75.99 0h61v61h-61v-61zm75.98 0h61v61h-61v-61zm-303.94 82h61v61h-61v-61zm75.99 0h61v61h-61v-61zm75.979 0h61v61h-61v-61zm75.99 0h61v61h-61v-61zm75.98 0h61v61h-61v-61zm-303.94 82.01h61v61h-61v-61zm75.99 0h61v61h-61v-61zm75.979 0h61v61h-61v-61zm75.99 0h61v61h-61v-61zm75.98 0h61v61h-61v-61z" color="#000000" color-rendering="auto" fill="#fff" image-rendering="auto" mask="url(#e)" solid-color="#000000" style="isolation:auto;mix-blend-mode:normal"/>
  </g>
 </g>
</svg>
